<svg width="50" height="50" viewBox="0 0 50 50" fill="none" xmlns="http://www.w3.org/2000/svg">
<path d="M5.4452 0C2.49345 0 0.0986328 2.39482 0.0986328 5.34657V44.5547C0.0986328 47.5065 2.49345 49.9013 5.4452 49.9013H44.6534C47.6051 49.9013 50 47.5065 50 44.5547V5.34657C50 2.39482 47.6051 0 44.6534 0H5.4452ZM16.4591 14.8405C18.6463 14.8405 20.5896 15.5967 22.0206 16.7309C23.3438 17.7837 23.9636 18.8369 24.5043 19.7821L20.7257 21.67C20.4554 21.0501 20.1301 20.4016 19.2948 19.7004C18.3761 18.9706 17.4594 18.7554 16.6746 18.7554C13.5974 18.7554 11.9774 21.6173 11.9774 24.8023C11.9774 28.9874 14.1117 31.0645 16.6746 31.0645C19.1585 31.0645 20.1585 29.3369 20.8048 28.2313L24.5592 30.148C23.8558 31.2536 23.1809 32.3351 21.6687 33.3859C20.8598 33.9528 18.998 35.0608 16.3515 35.0608C11.3026 35.0608 7.22739 31.3899 7.22739 24.9362C7.22739 19.296 11.0608 14.8405 16.4591 14.8405ZM24.867 15.4339H29.9423L33.8834 28.9873L37.7958 15.434H42.8712L36.2572 34.4936H31.3995L24.867 15.4339Z" fill="#D9D9D9"/>
</svg>
