<svg width="50" height="44" viewBox="0 0 50 44" fill="none" xmlns="http://www.w3.org/2000/svg">
<path d="M5.57997 2.92986e-06C2.70046 2.92986e-06 0.364258 2.10769 0.364258 4.70553V39.2128C0.364258 41.8106 2.70046 43.9183 5.57997 43.9183H43.8285C46.7081 43.9183 49.0443 41.8106 49.0443 39.2128V4.70553C49.0443 2.10769 46.7081 2.92986e-06 43.8285 2.92986e-06H5.57997ZM16.3243 13.0612C18.458 13.0612 20.3537 13.7267 21.7497 14.7249C23.0406 15.6515 23.6451 16.5784 24.1726 17.4103L20.4865 19.0718C20.2228 18.5263 19.9055 17.9555 19.0906 17.3384C18.1944 16.6961 17.3001 16.5067 16.5345 16.5067C13.5326 16.5067 11.9523 19.0254 11.9523 21.8286C11.9523 25.5119 14.0343 27.3399 16.5345 27.3399C18.9576 27.3399 19.9332 25.8195 20.5636 24.8465L24.2262 26.5333C23.54 27.5064 22.8816 28.4582 21.4064 29.383C20.6173 29.882 18.801 30.8571 16.2194 30.8571C11.294 30.8571 7.31854 27.6264 7.31854 21.9464C7.31854 16.9825 11.0581 13.0612 16.3243 13.0612ZM24.5264 13.5834H29.4775L33.3221 25.5118L37.1388 13.5835H42.09L35.6378 30.3579H30.899L24.5264 13.5834Z" fill="#D9D9D9"/>
</svg>
