<svg width="261" height="261" viewBox="0 0 261 261" fill="none" xmlns="http://www.w3.org/2000/svg">
<path d="M140.113 27.5355C136.351 20.4233 124.649 20.4233 120.886 27.5355L23.0114 212.411C22.1304 214.068 21.6936 215.925 21.7436 217.801C21.7936 219.677 22.3288 221.508 23.2969 223.115C24.265 224.723 25.6331 226.053 27.2679 226.974C28.9026 227.896 30.7482 228.379 32.6249 228.375H228.375C230.25 228.379 232.095 227.897 233.728 226.976C235.362 226.054 236.729 224.726 237.696 223.119C238.663 221.512 239.198 219.682 239.247 217.807C239.296 215.932 238.859 214.077 237.978 212.421L140.113 27.5355ZM141.375 195.75H119.625V174H141.375V195.75ZM119.625 152.25V97.875H141.375L141.386 152.25H119.625Z" fill="#F4CE14"/>
</svg>
