<svg width="50" height="50" viewBox="0 0 50 50" fill="none" xmlns="http://www.w3.org/2000/svg">
<path d="M49.0165 7.65041C49.0165 3.7664 45.8977 0.608582 42.0616 0.608582H7.28716C3.45111 0.608582 0.332275 3.7664 0.332275 7.65041V42.8595C0.332275 46.7435 3.45111 49.9013 7.28716 49.9013H42.0616C45.8977 49.9013 49.0165 46.7435 49.0165 42.8595V7.65041ZM29.2168 41.9463C29.2168 41.7482 29.2168 41.2861 29.2277 40.67C29.2385 39.4156 29.2385 37.5011 29.2385 35.8617C29.2385 34.1453 28.6734 33.056 28.0106 32.4838C32.0313 32.0327 36.2695 31.4716 36.2695 24.4408C36.2695 22.4382 35.5631 21.437 34.4112 20.1496C34.596 19.6765 35.2154 17.729 34.2265 15.1984C32.716 14.7252 29.2603 17.1679 29.2603 17.1679C27.8258 16.7608 26.2718 16.5517 24.7396 16.5517C23.2073 16.5517 21.6534 16.7608 20.2189 17.1679C20.2189 17.1679 16.7632 14.7252 15.2527 15.1984C14.2638 17.718 14.8723 19.6655 15.0679 20.1496C13.916 21.437 13.3727 22.4382 13.3727 24.4408C13.3727 31.4386 17.4261 32.0327 21.4469 32.4838C20.9253 32.957 20.458 33.7712 20.295 34.9375C19.2626 35.4106 16.6219 36.2248 15.0462 33.4081C14.0573 31.6696 12.2751 31.5266 12.2751 31.5266C10.5147 31.5046 12.1556 32.6489 12.1556 32.6489C13.3292 33.199 14.1551 35.3116 14.1551 35.3116C15.2092 38.5794 20.2515 37.4791 20.2515 37.4791C20.2515 38.4694 20.2624 39.8668 20.2624 40.846C20.2624 41.3741 20.2732 41.7922 20.2732 41.9463C20.2732 42.4194 19.9472 42.9916 19.0235 42.8265C11.8513 40.3949 6.83075 33.4851 6.83075 25.409C6.83075 15.3084 14.4594 7.6394 24.4353 7.6394C34.4112 7.6394 42.4963 15.3084 42.4963 25.409C42.5071 33.4851 37.6387 40.4059 30.4665 42.8265C29.5537 42.9916 29.2168 42.4194 29.2168 41.9463ZM19.3821 35.9167C19.3604 35.7517 19.5017 35.6086 19.7082 35.5646C19.9146 35.5426 20.1102 35.6307 20.132 35.7737C20.1646 35.9167 20.0233 36.0598 19.806 36.1038C19.5995 36.1478 19.4039 36.0598 19.3821 35.9167ZM18.3932 36.2688C18.1542 36.2908 17.9912 36.1698 17.9912 36.0047C17.9912 35.8617 18.1542 35.7407 18.3715 35.7407C18.578 35.7187 18.7736 35.8397 18.7736 36.0047C18.7736 36.1478 18.6106 36.2688 18.3932 36.2688ZM16.8393 36.0268C16.6328 35.9827 16.4915 35.8177 16.535 35.6747C16.5785 35.5316 16.7958 35.4656 16.9805 35.5096C17.1979 35.5756 17.3391 35.7407 17.2848 35.8837C17.2413 36.0268 17.024 36.0928 16.8393 36.0268ZM15.4809 35.2235C15.3179 35.0805 15.2744 34.8715 15.3831 34.7724C15.4809 34.6514 15.6874 34.6734 15.8504 34.8384C15.9916 34.9815 16.046 35.2015 15.9482 35.2896C15.8504 35.4106 15.6439 35.3886 15.4809 35.2235ZM14.5572 34.1233C14.4377 33.9582 14.4377 33.7712 14.5572 33.6942C14.6767 33.5951 14.8615 33.6721 14.9593 33.8372C15.0788 34.0022 15.0788 34.2003 14.9593 34.2883C14.8615 34.3543 14.6767 34.2883 14.5572 34.1233ZM13.8726 33.155C13.753 33.012 13.7313 32.8469 13.8291 32.7699C13.9269 32.6709 14.0899 32.7259 14.2094 32.8359C14.329 32.979 14.3507 33.144 14.2529 33.221C14.1551 33.3201 13.9921 33.265 13.8726 33.155ZM13.2206 32.4508C13.0793 32.3848 13.0141 32.2638 13.0575 32.1648C13.101 32.0987 13.2206 32.0657 13.3618 32.1207C13.5031 32.1978 13.5683 32.3188 13.5248 32.4068C13.4814 32.5058 13.3401 32.5278 13.2206 32.4508Z" fill="#D9D9D9"/>
</svg>
