<svg width="50" height="44" viewBox="0 0 50 44" fill="none" xmlns="http://www.w3.org/2000/svg">
<path d="M49.3643 6.27439C49.3643 2.81367 46.2454 0 42.4094 0H7.63494C3.79889 0 0.680054 2.81367 0.680054 6.27439V37.6464C0.680054 41.1071 3.79889 43.9208 7.63494 43.9208H42.4094C46.2454 43.9208 49.3643 41.1071 49.3643 37.6464V6.27439ZM29.5646 36.8327C29.5646 36.6562 29.5646 36.2444 29.5754 35.6954C29.5863 34.5778 29.5863 32.8719 29.5863 31.4112C29.5863 29.8818 29.0212 28.9112 28.3583 28.4014C32.3791 27.9995 36.6173 27.4995 36.6173 21.2349C36.6173 19.4506 35.9109 18.5585 34.759 17.4114C34.9437 16.9899 35.5632 15.2546 34.5743 12.9998C33.0637 12.5782 29.608 14.7546 29.608 14.7546C28.1736 14.3919 26.6196 14.2056 25.0874 14.2056C23.5551 14.2056 22.0011 14.3919 20.5667 14.7546C20.5667 14.7546 17.111 12.5782 15.6005 12.9998C14.6116 15.2448 15.2201 16.9801 15.4157 17.4114C14.2638 18.5585 13.7205 19.4506 13.7205 21.2349C13.7205 27.4701 17.7739 27.9995 21.7947 28.4014C21.273 28.823 20.8058 29.5485 20.6428 30.5877C19.6104 31.0092 16.9697 31.7347 15.394 29.225C14.4051 27.676 12.6229 27.5485 12.6229 27.5485C10.8624 27.5289 12.5034 28.5485 12.5034 28.5485C13.677 29.0387 14.5029 30.921 14.5029 30.921C15.557 33.8327 20.5993 32.8523 20.5993 32.8523C20.5993 33.7347 20.6102 34.9798 20.6102 35.8523C20.6102 36.3229 20.621 36.6954 20.621 36.8327C20.621 37.2542 20.295 37.764 19.3713 37.617C12.1991 35.4503 7.17853 29.2936 7.17853 22.0976C7.17853 13.0978 14.8072 6.26459 24.7831 6.26459C34.759 6.26459 42.8441 13.0978 42.8441 22.0976C42.8549 29.2936 37.9865 35.4601 30.8143 37.617C29.9014 37.764 29.5646 37.2542 29.5646 36.8327ZM19.7299 31.4602C19.7082 31.3131 19.8495 31.1857 20.0559 31.1465C20.2624 31.1269 20.458 31.2053 20.4797 31.3328C20.5123 31.4602 20.3711 31.5877 20.1537 31.6269C19.9473 31.6661 19.7517 31.5877 19.7299 31.4602ZM18.741 31.7739C18.502 31.7935 18.3389 31.6857 18.3389 31.5386C18.3389 31.4112 18.502 31.3033 18.7193 31.3033C18.9258 31.2837 19.1214 31.3916 19.1214 31.5386C19.1214 31.6661 18.9584 31.7739 18.741 31.7739ZM17.187 31.5582C16.9806 31.519 16.8393 31.372 16.8828 31.2445C16.9262 31.1171 17.1436 31.0583 17.3283 31.0975C17.5457 31.1563 17.6869 31.3033 17.6326 31.4308C17.5891 31.5582 17.3718 31.6171 17.187 31.5582ZM15.8287 30.8426C15.6657 30.7151 15.6222 30.5289 15.7309 30.4406C15.8287 30.3328 16.0351 30.3524 16.1981 30.4994C16.3394 30.6269 16.3938 30.823 16.2959 30.9014C16.1981 31.0092 15.9917 30.9896 15.8287 30.8426ZM14.905 29.8622C14.7854 29.7151 14.7854 29.5485 14.905 29.4799C15.0245 29.3916 15.2092 29.4602 15.3071 29.6073C15.4266 29.7544 15.4266 29.9308 15.3071 30.0093C15.2092 30.0681 15.0245 30.0093 14.905 29.8622ZM14.2204 28.9995C14.1008 28.872 14.0791 28.725 14.1769 28.6563C14.2747 28.5681 14.4377 28.6171 14.5572 28.7152C14.6768 28.8426 14.6985 28.9897 14.6007 29.0583C14.5029 29.1465 14.3399 29.0975 14.2204 28.9995ZM13.5683 28.372C13.4271 28.3132 13.3619 28.2054 13.4053 28.1171C13.4488 28.0583 13.5683 28.0289 13.7096 28.0779C13.8509 28.1465 13.9161 28.2544 13.8726 28.3328C13.8291 28.421 13.6879 28.4407 13.5683 28.372Z" fill="#D9D9D9"/>
</svg>
