<svg width="50" height="50" viewBox="0 0 50 50" fill="none" xmlns="http://www.w3.org/2000/svg">
<path d="M24.6464 0.608582C11.0344 0.608582 0 11.643 0 25.255C0 38.867 11.0344 49.9013 24.6464 49.9013C38.2584 49.9013 49.2928 38.867 49.2928 25.255C49.2928 11.643 38.2584 0.608582 24.6464 0.608582ZM18.6132 35.4704H13.6223V19.4092H18.6132V35.4704ZM16.0869 17.4374C14.5106 17.4374 13.4913 16.3207 13.4913 14.9394C13.4913 13.53 14.5414 12.4465 16.1511 12.4465C17.7608 12.4465 18.7467 13.53 18.7775 14.9394C18.7775 16.3207 17.7608 17.4374 16.0869 17.4374ZM36.8412 35.4704H31.8503V26.5694C31.8503 24.4976 31.1263 23.0907 29.3215 23.0907C27.9428 23.0907 27.1239 24.0432 26.7619 24.9597C26.6284 25.2858 26.595 25.7479 26.595 26.2074V35.4678H21.6015V24.531C21.6015 22.5259 21.5373 20.8494 21.4706 19.4066H25.8068L26.0353 21.6376H26.1354C26.7927 20.5901 28.4024 19.0446 31.0955 19.0446C34.3791 19.0446 36.8412 21.2448 36.8412 25.9738V35.4704Z" fill="#D9D9D9"/>
</svg>
