<svg width="49" height="44" viewBox="0 0 49 44" fill="none" xmlns="http://www.w3.org/2000/svg">
<path fill-rule="evenodd" clip-rule="evenodd" d="M40.5667 0C42.7185 0 44.7821 0.771182 46.3037 2.1439C47.8252 3.51661 48.68 5.37841 48.68 7.31972V36.5986C48.68 38.5399 47.8252 40.4017 46.3037 41.7744C44.7821 43.1471 42.7185 43.9183 40.5667 43.9183H8.11333C5.96154 43.9183 3.89789 43.1471 2.37634 41.7744C0.854795 40.4017 0 38.5399 0 36.5986V7.31972C0 5.37841 0.854795 3.51661 2.37634 2.1439C3.89789 0.771182 5.96154 0 8.11333 0H40.5667ZM13.5222 17.0793C12.805 17.0793 12.1171 17.3364 11.6099 17.794C11.1027 18.2515 10.8178 18.8721 10.8178 19.5192V31.7188C10.8178 32.3659 11.1027 32.9865 11.6099 33.444C12.1171 33.9016 12.805 34.1587 13.5222 34.1587C14.2395 34.1587 14.9274 33.9016 15.4346 33.444C15.9417 32.9865 16.2267 32.3659 16.2267 31.7188V19.5192C16.2267 18.8721 15.9417 18.2515 15.4346 17.794C14.9274 17.3364 14.2395 17.0793 13.5222 17.0793ZM21.6356 14.6394C20.9183 14.6394 20.2304 14.8965 19.7232 15.3541C19.216 15.8116 18.9311 16.4322 18.9311 17.0793V31.7188C18.9311 32.3659 19.216 32.9865 19.7232 33.444C20.2304 33.9016 20.9183 34.1587 21.6356 34.1587C22.3528 34.1587 23.0407 33.9016 23.5479 33.444C24.0551 32.9865 24.34 32.3659 24.34 31.7188V22.7887C25.1649 21.9494 26.5576 20.9637 28.1073 20.3659C29.0079 20.0194 30.3628 19.8779 31.3039 20.1463C31.6162 20.2178 31.8942 20.3787 32.0963 20.605C32.237 20.7758 32.4533 21.1564 32.4533 21.9591V31.7188C32.4533 32.3659 32.7383 32.9865 33.2454 33.444C33.7526 33.9016 34.4405 34.1587 35.1578 34.1587C35.875 34.1587 36.5629 33.9016 37.0701 33.444C37.5773 32.9865 37.8622 32.3659 37.8622 31.7188V21.9591C37.8622 20.3244 37.4025 18.8702 36.4451 17.704C35.5641 16.6464 34.3312 15.8709 32.9266 15.491C30.4872 14.8005 27.7855 15.1835 25.9816 15.8813C25.4036 16.1045 24.841 16.3587 24.2967 16.6426C24.1834 16.0804 23.8549 15.572 23.3686 15.2059C22.8822 14.8398 22.2689 14.6393 21.6356 14.6394ZM13.5222 9.75962C12.805 9.75962 12.1171 10.0167 11.6099 10.4743C11.1027 10.9318 10.8178 11.5524 10.8178 12.1995C10.8178 12.8466 11.1027 13.4672 11.6099 13.9248C12.1171 14.3824 12.805 14.6394 13.5222 14.6394C14.2395 14.6394 14.9274 14.3824 15.4346 13.9248C15.9417 13.4672 16.2267 12.8466 16.2267 12.1995C16.2267 11.5524 15.9417 10.9318 15.4346 10.4743C14.9274 10.0167 14.2395 9.75962 13.5222 9.75962Z" fill="#D9D9D9"/>
</svg>
