<svg width="33" height="33" viewBox="0 0 33 33" fill="none" xmlns="http://www.w3.org/2000/svg">
<path d="M32.3047 28.9708C32.7474 29.4135 32.9961 30.0138 32.9961 30.6398C32.9961 31.2657 32.7474 31.8661 32.3047 32.3087C31.8621 32.7513 31.2617 33 30.6357 33C30.0097 33 29.4093 32.7513 28.9667 32.3087L16.5 19.8388L4.0294 32.3048C3.58674 32.7474 2.98637 32.9961 2.36037 32.9961C1.73436 32.9961 1.13399 32.7474 0.691335 32.3048C0.248681 31.8621 6.59606e-09 31.2618 0 30.6358C-6.59606e-09 30.0099 0.248681 29.4095 0.691335 28.9669L13.1619 16.501L0.695262 4.03112C0.252607 3.58849 0.00392721 2.98816 0.00392722 2.36219C0.00392723 1.73622 0.252607 1.13589 0.695262 0.693257C1.13792 0.250629 1.73828 0.00196313 2.36429 0.00196312C2.9903 0.00196311 3.59067 0.250629 4.03332 0.693257L16.5 13.1631L28.9706 0.691293C29.4133 0.248665 30.0136 -1.04287e-08 30.6396 0C31.2656 1.04287e-08 31.866 0.248665 32.3087 0.691293C32.7513 1.13392 33 1.73425 33 2.36022C33 2.9862 32.7513 3.58653 32.3087 4.02916L19.8381 16.501L32.3047 28.9708Z" fill="#F5F7F8"/>
</svg>
